<?xml version="1.0" standalone="no"?>
<!DOCTYPE svg PUBLIC "-//W3C//DTD SVG 20010904//EN"
 "http://www.w3.org/TR/2001/REC-SVG-20010904/DTD/svg10.dtd">
<svg version="1.0" xmlns="http://www.w3.org/2000/svg"
 width="700.000000pt" height="700.000000pt" viewBox="0 0 700.000000 700.000000"
 preserveAspectRatio="xMidYMid meet">
<metadata>
Created by potrace 1.14, written by Peter Selinger 2001-2017
</metadata>
<g transform="translate(0.000000,700.000000) scale(0.100000,-0.100000)"
fill="#000000" stroke="none">
<path d="M1120 6991 c-116 -38 -188 -141 -177 -254 9 -96 60 -168 150 -207
157 -70 337 54 337 231 0 83 -56 171 -133 211 -45 22 -136 32 -177 19z"/>
<path d="M4666 6986 c-59 -22 -108 -67 -138 -127 -83 -165 50 -362 234 -347
218 18 307 278 147 423 -22 20 -52 40 -67 46 -46 18 -134 20 -176 5z"/>
<path d="M3537 6373 c-193 -43 -345 -203 -378 -397 -45 -264 139 -524 398
-563 199 -30 381 47 491 208 110 163 111 385 1 546 -115 167 -320 250 -512
206z"/>
<path d="M1810 6122 c-91 -34 -126 -60 -182 -134 -174 -228 -21 -558 270 -582
210 -17 390 153 390 368 0 146 -78 266 -214 331 -74 35 -193 43 -264 17z"/>
<path d="M4350 5134 c-162 -32 -288 -99 -400 -214 -41 -43 -83 -89 -93 -104
-13 -19 -24 -25 -38 -21 -36 12 -157 6 -221 -10 -92 -24 -189 -79 -258 -147
-57 -56 -62 -58 -93 -50 -35 10 -296 10 -312 0 -6 -3 -32 -9 -58 -12 -48 -7
-49 -6 -108 48 -204 190 -503 251 -764 158 -206 -73 -381 -241 -455 -438 -12
-33 -23 -66 -25 -74 -18 -78 -34 -163 -39 -198 -7 -55 -12 -63 -39 -57 -26 5
-181 33 -217 39 -30 5 -83 14 -125 21 -116 21 -147 25 -200 25 -204 -1 -409
-128 -498 -310 -33 -66 -66 -186 -80 -290 -3 -19 -17 -102 -32 -185 -14 -82
-40 -226 -56 -320 -17 -93 -32 -181 -34 -195 -2 -14 -6 -34 -8 -45 -4 -18 -8
-38 -23 -130 -5 -32 -33 -188 -38 -215 -5 -24 -22 -124 -32 -185 -3 -16 -9
-52 -14 -80 -6 -27 -12 -68 -16 -90 -3 -22 -7 -47 -9 -55 -4 -15 -7 -28 -24
-140 -27 -166 5 -304 101 -437 49 -67 79 -96 153 -144 89 -59 140 -73 535
-140 69 -12 128 -24 132 -28 3 -3 0 -37 -8 -76 -7 -38 -16 -88 -19 -110 -3
-22 -8 -49 -10 -60 -2 -11 -4 -23 -4 -27 -1 -3 -10 -4 -21 -1 -57 15 -166 -50
-191 -114 -26 -67 -13 -147 33 -204 22 -27 91 -57 148 -64 30 -4 57 -8 60 -10
3 -2 50 -11 105 -20 55 -9 111 -18 125 -21 14 -2 41 -7 60 -10 19 -3 42 -7 50
-9 8 -3 33 -7 55 -10 33 -5 104 -18 277 -50 9 -2 38 -7 65 -11 26 -3 57 -8 68
-11 11 -2 85 -15 165 -29 80 -13 156 -27 170 -30 14 -3 53 -9 88 -14 34 -6 81
-14 105 -19 23 -5 60 -12 82 -15 22 -4 78 -13 125 -21 83 -15 102 -18 165 -30
46 -8 256 -44 290 -50 44 -7 143 -25 200 -35 288 -54 374 -64 413 -50 55 20
90 49 112 95 29 60 27 131 -6 181 -26 41 -82 84 -109 84 -17 0 -19 26 -5 85 5
22 12 63 15 90 4 28 8 58 11 67 6 21 8 29 34 188 30 180 33 186 53 119 8 -30
40 -126 70 -214 l55 -160 -33 -20 c-58 -35 -80 -72 -89 -149 -12 -100 81 -198
188 -198 19 0 109 26 202 57 93 32 340 116 549 187 209 71 439 149 510 173 72
24 229 78 350 119 412 139 950 324 975 334 61 24 110 102 110 174 0 45 -29
112 -59 136 -48 38 -95 54 -141 49 l-47 -6 -55 160 -55 161 26 10 c14 5 85 30
156 54 212 71 261 91 317 126 169 109 270 297 263 495 -3 82 -18 138 -91 353
-31 91 -94 275 -140 410 -118 349 -326 958 -364 1070 -51 146 -98 218 -193
295 -114 92 -233 134 -364 129 -94 -3 -120 -9 -346 -86 -115 -38 -210 -68
-211 -66 -1 1 -17 46 -36 98 -18 52 -50 126 -72 163 -101 175 -291 313 -493
357 -75 17 -221 19 -295 4z m1525 -903 c50 -28 102 -77 121 -114 13 -23 70
-188 164 -467 10 -30 87 -255 170 -500 221 -647 220 -644 220 -699 0 -98 -62
-205 -144 -248 -28 -14 -336 -124 -336 -119 0 2 -59 176 -331 976 -44 129 -98
287 -119 350 -21 63 -86 254 -144 424 -58 170 -104 311 -103 313 2 1 75 28
163 58 146 52 165 56 229 52 48 -3 83 -11 110 -26z m-4795 -535 c25 -4 52 -9
60 -11 8 -2 29 -6 45 -9 17 -3 71 -12 120 -20 50 -9 93 -16 98 -16 4 0 5 -13
2 -30 -3 -16 -7 -42 -10 -57 -6 -40 -33 -189 -51 -290 -8 -49 -20 -115 -25
-148 -6 -33 -12 -71 -14 -85 -12 -61 -108 -606 -130 -735 -3 -16 -8 -46 -11
-65 -4 -19 -8 -44 -10 -55 -1 -11 -28 -164 -60 -340 -31 -176 -57 -326 -57
-332 0 -7 -4 -13 -9 -13 -34 0 -404 72 -435 85 -82 34 -159 142 -167 232 -2
32 9 122 28 218 3 17 15 82 26 145 11 63 22 126 25 140 2 14 15 90 29 170 14
80 32 183 40 230 8 47 24 137 35 200 11 63 29 167 40 230 11 63 23 133 26 155
16 107 47 240 62 263 44 71 117 126 188 142 33 7 86 6 155 -4z"/>
</g>
</svg>
