<svg id="Capa_1" enable-background="new 0 0 512 512" height="512" viewBox="0 0 512 512" width="512" xmlns="http://www.w3.org/2000/svg"><g><g><g><g><g><g><g><circle cx="256" cy="256" fill="#c38778" r="256"/></g></g></g></g></g></g><path d="m512 256c0-6.722-.259-13.383-.768-19.974l-119.435-119.436-166.395-41.645-91.444 51.52-60.505 90.322 42.088 173.944 120.843 120.529c6.475.49 13.016.74 19.616.74 141.385 0 256-114.615 256-256z" fill="#a65d4e"/><g><path d="m329.525 330.342h-1.304v-30h1.304c20.112 0 36.475-16.363 36.475-36.475s-16.362-36.475-36.475-36.475h-1.304v-30h1.304c36.654 0 66.475 29.821 66.475 66.475 0 36.655-29.82 66.475-66.475 66.475z" fill="#ff9500"/></g><g><path d="m302.553 130.509c-4.648 0-9.086.901-13.149 2.538-7.709-9.997-19.804-16.437-33.405-16.437-13.6 0-25.695 6.44-33.405 16.437-4.063-1.637-8.5-2.538-13.149-2.538-19.445 0-35.209 15.764-35.209 35.209s15.764 35.209 35.209 35.209c8.374 0 16.066-2.924 22.109-7.806 6.895 4.915 15.332 7.806 24.444 7.806s17.549-2.891 24.444-7.806c6.044 4.882 13.735 7.806 22.109 7.806 19.445 0 35.209-15.764 35.209-35.209s-15.761-35.209-35.207-35.209z" fill="#fff"/></g><g><path d="m302.553 130.509c-4.648 0-9.086.901-13.149 2.538-7.641-9.908-19.593-16.314-33.046-16.427v84.3c8.975-.075 17.281-2.949 24.085-7.799 6.044 4.882 13.735 7.806 22.11 7.806 19.446 0 35.209-15.764 35.209-35.209.001-19.446-15.763-35.209-35.209-35.209z" fill="#e9edf5"/></g><g><path d="m174.237 173.594h163.525v199.305h-163.525z" fill="#ffc247"/></g><g><path d="m256.359 173.594h81.404v199.305h-81.404z" fill="#ffa426"/></g><g><path d="m256 345.565c-8.075 0-14.622-6.546-14.622-14.622v-115.394c0-8.075 6.547-14.622 14.622-14.622 8.075 0 14.622 6.546 14.622 14.622v115.394c0 8.075-6.547 14.622-14.622 14.622z" fill="#ffb13b"/></g><g><path d="m256.359 200.945v144.601c7.908-.192 14.263-6.649 14.263-14.604v-115.393c0-7.954-6.355-14.411-14.263-14.604z" fill="#ff9500"/></g><g><g><path d="m210.78 345.565c-8.076 0-14.622-6.546-14.622-14.622v-115.394c0-8.075 6.546-14.622 14.622-14.622 8.075 0 14.622 6.546 14.622 14.622v115.394c0 8.075-6.547 14.622-14.622 14.622z" fill="#ffb13b"/></g><g><path d="m301.22 345.565c-8.076 0-14.622-6.546-14.622-14.622v-115.394c0-8.075 6.546-14.622 14.622-14.622 8.075 0 14.622 6.546 14.622 14.622v115.394c0 8.075-6.547 14.622-14.622 14.622z" fill="#ff9500"/></g></g><path d="m256 61.278c-107.37 0-194.722 87.352-194.722 194.722s87.352 194.721 194.722 194.721 194.722-87.351 194.722-194.721-87.352-194.722-194.722-194.722zm0 30c40.025 0 76.761 14.35 105.335 38.174l-231.883 231.882c-23.824-28.573-38.174-65.309-38.174-105.334 0-90.828 73.894-164.722 164.722-164.722zm0 329.443c-40.025 0-76.761-14.35-105.335-38.174l231.883-231.882c23.824 28.574 38.174 65.31 38.174 105.334 0 90.828-73.894 164.722-164.722 164.722z" fill="#ff9500"/><path d="m256.359 61.283v30c39.885.086 76.486 14.42 104.975 38.171l-104.975 104.974v42.426l126.188-126.188c23.825 28.573 38.174 65.309 38.174 105.333 0 90.708-73.699 164.522-164.363 164.717v30c107.206-.194 194.364-87.466 194.364-194.716s-87.158-194.522-194.363-194.717z" fill="#fe6a16"/></g></svg>