<svg height="456pt" viewBox="-2 0 456 456.00056" width="456pt" xmlns="http://www.w3.org/2000/svg"><path d="m228.339844 431.464844 6.882812-39.289063s-62.503906-182.152343-62.914062-184.589843c-.8125-4.679688-.933594-9.457032-.359375-14.171876l-75.695313-10.863281-2.128906 12.175781-30.398438-5.320312c-9.6875-1.699219-19.652343.519531-27.699218 6.167969-8.050782 5.652343-13.519532 14.273437-15.207032 23.960937l-20.269531 115.664063c-3.507812 20.160156 9.976563 39.351562 30.132813 42.878906l30.402344 5.328125-3.199219 18.257812c-4.394531-.863281-8.910157.714844-11.808594 4.128907-2.898437 3.410156-3.726563 8.125-2.160156 12.320312 1.566406 4.195313 5.277343 7.214844 9.703125 7.894531l170.398437 29.808594c6.726563 1.175782 13.128907-3.324218 14.304688-10.046875 1.175781-6.726562-3.324219-13.128906-10.046875-14.304687zm-162.96875-72.410156-24.34375-4.253907c-10.082032-1.761719-16.828125-11.367187-15.0625-21.449219l18.097656-103.472656c1.757812-10.082031 11.363281-16.828125 21.445312-15.0625l24.34375 4.253906zm0 0" fill="#e2e2e2"/><path d="m188.019531 204.886719c-4.109375 1.425781-8.140625 2.984375-12.246093 4.152343-1.832032.519532-3.089844.984376-3.496094-1.453124-.863282-4.851563-.976563-9.804688-.335938-14.691407 0-.253906.136719-.496093.175782-.742187l-67.914063-8.199219-36.796875 215.070313c-.691406 4.363281 2.285156 8.460937 6.648438 9.152343l138.664062 22c4.328125.6875 8.40625-2.238281 9.140625-6.558593l7.851563-47.464844-40.507813-166.230469c-.523437-1.644531-.917969-3.328125-1.183594-5.035156zm0 0" fill="#f4c734"/><path d="m173.203125 209.921875 71.617187 210.574219c-6.351562 2.277344-9.707031 9.226562-7.535156 15.617187 2.175782 6.390625 9.074219 9.855469 15.496094 7.78125l163.792969-55.71875c6.351562-2.273437 9.707031-9.226562 7.53125-15.617187-2.171875-6.390625-9.070313-9.851563-15.492188-7.78125l-7.199219-21.082032 24.613282-8.375c19.402344-6.578124 29.789062-27.644531 23.203125-47.039062l-37.800781-111.136719c-6.597657-19.382812-27.65625-29.753906-47.039063-23.160156l-24.617187 8.414063-2.785157-8.160157zm239.066406 104-18.769531 6.398437-45.765625-134.558593 18.765625-6.402344c9.691406-3.296875 20.21875 1.886719 23.511719 11.578125l33.832031 99.460938c3.300781 9.691406-1.882812 20.21875-11.574219 23.511718zm0 0" fill="#e2e2e2"/><path d="m329.84375 156.625-150.175781 51.09375 70.121093 201.640625c1.4375 4.144531 5.945313 6.355469 10.105469 4.960937l133.117188-44.625c4.191406-1.40625 6.445312-5.9375 5.042969-10.128906zm0 0" fill="#f4c734"/><path d="m171.964844 192.894531c2.339844-18.859375 18.773437-32.757812 37.761718-31.933593.722657-1.105469 1.503907-2.175782 2.335938-3.199219-.980469-.320313-1.976562-.585938-2.984375-.800781-8.984375-1.117188-18.09375-.574219-26.882813 1.597656-12.507812-14.378906-32.171874-20.28125-50.53125-15.167969-18.363281 5.113281-32.144531 20.328125-35.417968 39.105469l75.480468 14.777344c.054688-1.433594.039063-2.921876.238282-4.378907zm0 0" fill="#f9f2cc"/><path d="m323.222656 16c0 8.835938-7.164062 16-16 16-8.839844 0-16-7.164062-16-16s7.160156-16 16-16c8.835938 0 16 7.164062 16 16zm0 0" fill="#f9f2cc"/><path d="m267.222656 72c0 17.671875-14.328125 32-32 32-17.675781 0-32-14.328125-32-32s14.324219-32 32-32c17.671875 0 32 14.328125 32 32zm0 0" fill="#f9f2cc"/><path d="m147.222656 80c0 13.253906-10.746094 24-24 24-13.257812 0-24-10.746094-24-24s10.742188-24 24-24c13.253906 0 24 10.746094 24 24zm0 0" fill="#f9f2cc"/><path d="m91.222656 16c0 8.835938-7.164062 16-16 16-8.839844 0-16-7.164062-16-16s7.160156-16 16-16c8.835938 0 16 7.164062 16 16zm0 0" fill="#f9f2cc"/><g fill="#e0b730"><path d="m277.886719 237.503906c-.710938-2.066406-2.242188-3.753906-4.234375-4.65625-1.878906 1.714844-4.089844 3.023438-6.496094 3.847656-1.394531.453126-2.835938.746094-4.296875.863282-.605469 1.640625-.648437 3.433594-.117187 5.097656l46.589843 136.945312c1.425781 4.175782 5.964844 6.410157 10.144531 4.992188 4.179688-1.425781 6.410157-5.964844 4.992188-10.144531zm0 0"/><path d="m226.792969 246.441406c4.179687-1.421875 8.722656.8125 10.148437 4.996094l46.585938 136.941406c1.425781 4.183594-.8125 8.726563-4.992188 10.148438-4.179687 1.421875-8.722656-.816406-10.148437-5l-46.585938-136.9375c-1.425781-4.183594.8125-8.726563 4.992188-10.148438zm0 0"/><path d="m308.683594 218.574219c4.179687-1.421875 8.722656.8125 10.144531 4.996093l46.585937 136.941407c1.421876 4.183593-.8125 8.726562-4.996093 10.148437-4.179688 1.425782-8.722657-.8125-10.144531-4.996094l-46.585938-136.941406c-1.421875-4.183594.816406-8.726562 4.996094-10.148437zm0 0"/><path d="m138.703125 398 24.921875-142.484375c.761719-4.351563 4.910156-7.265625 9.261719-6.503906l.007812.003906c4.351563.761719 7.261719 4.90625 6.5 9.257813l-24.921875 142.484374c-.761718 4.351563-4.90625 7.261719-9.261718 6.5h-.007813c-4.351563-.761718-7.261719-4.90625-6.5-9.257812zm0 0"/><path d="m181.21875 405.507812 12.914062-78.316406c.71875-4.359375 4.832032-7.3125 9.1875-6.59375 4.359376.71875 7.308594 4.835938 6.589844 9.195313l-12.910156 78.316406c-.71875 4.359375-4.835938 7.3125-9.191406 6.59375-4.355469-.71875-7.308594-4.835937-6.589844-9.195313zm0 0"/><path d="m96.097656 390.539062 24.914063-142.476562c.761719-4.351562 4.90625-7.265625 9.257812-6.503906h.007813c4.355468.761718 7.265625 4.90625 6.503906 9.261718l-24.914062 142.476563c-.761719 4.351563-4.90625 7.261719-9.257813 6.503906l-.007813-.003906c-4.355468-.761719-7.265624-4.90625-6.503906-9.257813zm0 0"/></g><path d="m222.726562 445c-.226562 0-.453124-.019531-.671874-.054688l-163.496094-27.496093c-1.050782-.175781-1.984375-.761719-2.597656-1.628907-.617188-.867187-.863282-1.941406-.683594-2.988281.410156-2.152343 2.441406-3.597656 4.609375-3.28125l163.503906 27.503907c2.046875.347656 3.492187 2.207031 3.316406 4.277343-.171875 2.074219-1.902343 3.667969-3.980469 3.667969zm0 0" fill="#ccc"/><path d="m249.71875 432.503906c-1.964844.011719-3.648438-1.40625-3.96875-3.34375-.324219-1.9375.808594-3.824218 2.671875-4.449218l157.503906-54c2.089844-.714844 4.367188.402343 5.082031 2.492187.71875 2.09375-.398437 4.367187-2.492187 5.085937l-157.496094 54c-.417969.140626-.859375.214844-1.300781.214844zm0 0" fill="#ccc"/><path d="m171.964844 192.894531c-.636719 4.886719-.523438 9.84375.335937 14.699219.410157 2.398438 1.664063 1.964844 3.496094 1.445312 4.433594-1.261718 8.800781-2.992187 13.230469-4.503906 4.183594-1.421875 8.730468.8125 10.152344 4.992188l5.042968 14.824218c2.949219 9.328126 12.417969 14.960938 22.023438 13.105469 5.113281-1.171875 9.496094-4.453125 12.054687-9.039062 2.554688-4.582031 3.050781-10.035157 1.359375-15.003907l3.640625 10.699219c2.949219 9.320313 12.414063 14.953125 22.015625 13.101563 5.117188-1.167969 9.496094-4.453125 12.054688-9.035156 2.558594-4.582032 3.058594-10.035157 1.371094-15.003907l-9.371094-27.527343c-1.417969-4.183594.820312-8.722657 5-10.144532l62.617187-21.304687c-6.128906-18.046875-22.09375-30.957031-41.023437-33.179688-18.929688-2.222656-37.449219 6.644531-47.59375 22.78125-15.203125-2.941406-30.632813 3.90625-38.644532 17.160157-18.929687-.660157-35.269531 13.160156-37.761718 31.933593zm0 0" fill="#f9f2cc"/></svg>