<svg id="Capa_1" enable-background="new 0 0 512 512" height="512" viewBox="0 0 512 512" width="512" xmlns="http://www.w3.org/2000/svg"><path d="m228.726 279.663h40.406c23.631 0 42.856-19.225 42.856-42.855v-40.407c0-23.63-19.226-42.855-42.856-42.855h-37.957v-35.508h73.313c4.143 0 7.5-3.358 7.5-7.5v-30.306c0-4.142-3.357-7.5-7.5-7.5h-75.763c-23.631 0-42.856 19.225-42.856 42.855v36.877c0 4.142 3.358 7.5 7.5 7.5s7.5-3.358 7.5-7.5v-36.877c0-15.359 12.496-27.855 27.856-27.855h68.263v15.305h-68.263c-6.92 0-12.551 5.63-12.551 12.551v45.458c0 4.142 3.358 7.5 7.5 7.5h45.457c15.36 0 27.856 12.496 27.856 27.855v40.407c0 15.359-12.496 27.855-27.856 27.855h-40.406c-15.36 0-27.856-12.496-27.856-27.855v-49.334c0-4.142-3.358-7.5-7.5-7.5s-7.5 3.358-7.5 7.5v49.334c.001 23.63 19.226 42.855 42.857 42.855z"/><path d="m269.132 249.358c6.921 0 12.551-5.63 12.551-12.551v-40.407c0-6.92-5.63-12.551-12.551-12.551h-45.457c-4.142 0-7.5 3.358-7.5 7.5v45.458c0 6.92 5.63 12.551 12.551 12.551zm-37.957-50.508h35.508v35.508h-35.508z"/><path d="m70.13 279.663h60.61c23.63 0 42.855-19.225 42.855-42.855v-40.407c0-7.112-1.742-14.007-5.073-20.203 3.332-6.196 5.073-13.091 5.073-20.203v-40.407c0-23.63-19.225-42.855-42.855-42.855h-60.61c-4.142 0-7.5 3.358-7.5 7.5v30.305c0 4.142 3.358 7.5 7.5 7.5h58.161v35.508h-37.958c-4.142 0-7.5 3.358-7.5 7.5v30.305c0 4.142 3.358 7.5 7.5 7.5h37.958v35.508h-58.161c-4.142 0-7.5 3.358-7.5 7.5v30.305c0 4.141 3.358 7.499 7.5 7.499zm7.5-30.305h53.11c6.92 0 12.551-5.63 12.551-12.551v-40.407c0-6.92-5.63-12.551-12.551-12.551h-32.907v-15.305h32.907c6.92 0 12.551-5.63 12.551-12.551v-40.407c0-6.92-5.63-12.551-12.551-12.551h-53.11v-15.303h53.11c15.359 0 27.855 12.496 27.855 27.855v40.407c0 5.714-1.733 11.215-5.013 15.906-1.804 2.581-1.804 6.014 0 8.595 3.28 4.691 5.013 10.191 5.013 15.906v40.407c0 15.359-12.496 27.855-27.855 27.855h-53.11z"/><path d="m366.108 279.663h40.407c23.631 0 42.855-19.225 42.855-42.855v-49.146c0-4.142-3.357-7.5-7.5-7.5s-7.5 3.358-7.5 7.5v49.146c0 15.359-12.496 27.855-27.855 27.855h-40.407c-15.359 0-27.855-12.496-27.855-27.855v-121.22c0-15.359 12.496-27.855 27.855-27.855h40.407c15.359 0 27.855 12.496 27.855 27.855v36.877c0 4.142 3.357 7.5 7.5 7.5s7.5-3.358 7.5-7.5v-36.877c0-23.63-19.225-42.855-42.855-42.855h-40.407c-23.631 0-42.855 19.225-42.855 42.855v121.22c-.001 23.63 19.224 42.855 42.855 42.855z"/><path d="m366.108 103.037c-6.921 0-12.551 5.63-12.551 12.551v121.22c0 6.92 5.63 12.551 12.551 12.551h40.407c6.921 0 12.551-5.63 12.551-12.551v-121.22c0-6.92-5.63-12.551-12.551-12.551zm37.958 131.321h-35.509v-116.321h35.509z"/><path d="m473.186 86.722c17.503 0 31.743-14.24 31.743-31.744 0-17.503-14.24-31.744-31.743-31.744-17.504 0-31.744 14.24-31.744 31.744s14.24 31.744 31.744 31.744zm0-48.488c9.232 0 16.743 7.511 16.743 16.744s-7.511 16.744-16.743 16.744-16.744-7.511-16.744-16.744 7.512-16.744 16.744-16.744z"/><path d="m511.999 356.987c-.032-18.188-25.804-32.265-78.79-43.034-47.41-9.636-110.344-14.943-177.209-14.943s-129.798 5.307-177.209 14.943c-52.904 10.753-78.675 24.803-78.786 42.951 0 .037-.005.074-.005.112v50.508c0 12.858 12.819 23.54 39.191 32.655 22.183 7.667 53.731 14.062 91.234 18.492 4.113.485 7.842-2.455 8.328-6.568s-2.455-7.842-6.568-8.328c-36.45-4.306-66.913-10.452-88.094-17.773-22.964-7.937-29.091-15.349-29.091-18.477v-28.864c12.852 8.277 34.029 15.371 63.791 21.42 47.412 9.637 110.347 14.944 177.21 14.944 4.143 0 7.5-3.358 7.5-7.5v-8.506l46.42 33.76-46.42 33.76v-8.505c0-4.142-3.357-7.5-7.5-7.5-30.829 0-60.896-1.14-89.365-3.388-4.117-.331-7.741 2.757-8.067 6.886s2.757 7.741 6.886 8.067c26.544 2.096 54.447 3.242 83.045 3.412v15.756c0 2.821 1.583 5.403 4.097 6.684 1.074.547 2.241.816 3.402.816 1.557 0 3.105-.484 4.412-1.435l66.671-48.488c1.94-1.411 3.089-3.666 3.089-6.065s-1.148-4.654-3.089-6.065l-66.671-48.488c-2.281-1.658-5.299-1.898-7.814-.618-2.514 1.28-4.097 3.863-4.097 6.684v15.711c-63.075-.379-122.03-5.537-166.722-14.621-5.03-1.022-9.705-2.061-14.051-3.107 46.138-11.113 115.066-17.755 188.273-17.755 73.165 0 142.055 6.635 188.192 17.737-19.957 4.851-46.43 9.402-80.843 12.786-3.839.377-6.766 3.606-6.766 7.464l.004 50.504c0 2.117.895 4.135 2.463 5.557 1.386 1.256 3.184 1.943 5.037 1.943.244 0 .489-.012.734-.036 41.958-4.126 77.54-10.563 102.901-18.616 29.795-9.459 44.278-20.69 44.278-34.334v-50.508c0-.011-.001-.02-.001-.03zm-255.999-7.467c-87.569 0-169.542 9.482-215.183 24.808-19.632-7.237-25.808-13.901-25.817-17.304 0-.001 0-.002 0-.003 0-5.117 13.957-17.632 66.779-28.368 46.457-9.443 108.33-14.643 174.221-14.643s127.765 5.2 174.222 14.643c52.813 10.734 66.774 23.247 66.778 28.365-.002 3.859-7.391 10.396-25.975 17.26-45.669-15.296-127.557-24.758-215.025-24.758zm241 58.005c0 7.893-30.887 26.995-125.413 37.175l-.002-35.42c39.021-4.138 72.15-10.309 96.139-17.926 12.384-3.933 22.123-8.172 29.276-12.762z"/></svg>