<svg id="Layer_1" enable-background="new 0 0 512 512" height="512" viewBox="0 0 512 512" width="512" xmlns="http://www.w3.org/2000/svg"><g><path d="m202.5 30v20h-80v-20c0-11.05 8.95-20 20-20h40c11.05 0 20 8.95 20 20z" fill="#ffdcd5"/><path d="m285 342.59v119.41c0 22.09-17.91 40-40 40h-165c-22.09 0-40-17.91-40-40v-119.41c0-19.12 3.7-37.87 10.7-55.29s17.32-33.5 30.55-47.3c26.47-27.59 41.25-64.35 41.25-102.59v-87.41h80v87.41c0 19.12 3.7 37.87 10.7 55.29s17.32 33.5 30.55 47.3c26.47 27.59 41.25 64.35 41.25 102.59z" fill="#b8ecbc"/><path d="m122.5 90h80v40h-80z" fill="#ffdcd5"/><path d="m195.5 290c-.249-19.051-15.206-34.5-33-34.5s-32.751 15.449-33 34.5h-31.5v164.5h129v-164.5z" fill="#fff"/><circle cx="349.5" cy="332" fill="#ffda8f" r="122.5"/><g><circle cx="138" cy="410" r="10"/><circle cx="187" cy="410" r="10"/><path d="m187 360h-49c-5.51 0-10 4.49-10 10s4.49 10 10 10h49c5.51 0 10-4.49 10-10s-4.49-10-10-10z"/><path d="m150 340h25c5.51 0 10-4.49 10-10s-4.49-10-10-10h-25c-5.51 0-10 4.49-10 10s4.49 10 10 10z"/><path d="m435.22 409.51c-2.63 0-5.11 1.01-6.99 2.85-.01 0-.01.011-.01.011-1.9 1.87-2.97 4.37-2.99 7.029-.03 2.67.98 5.19 2.85 7.101 1.9 1.939 4.44 3 7.15 3 2.63 0 5.11-1.01 6.99-2.851 1.91-1.869 2.98-4.369 3.01-7.04.02-2.67-.99-5.199-2.86-7.1-1.9-1.941-4.44-3-7.15-3z"/><path d="m471.58 280.42c-6.67-15.771-16.22-29.94-28.39-42.11s-26.34-21.72-42.11-28.399c-16.34-6.9-33.69-10.41-51.58-10.41s-35.24 3.51-51.58 10.41c-15.77 6.68-29.94 16.229-42.11 28.399-.013.013-.025.026-.038.039-1.569-1.791-3.164-3.558-4.804-5.269-12.297-12.827-22.133-27.667-28.739-44.107-6.622-16.48-10.229-33.827-10.229-51.563v-107.41c0-16.542-12.958-30-29.5-30h-40c-16.542 0-30.5 13.458-30.5 30v107.41c0 35.837-13.411 69.813-38.218 95.669-14.075 14.682-24.922 31.669-32.485 50.492-7.579 18.86-11.297 38.717-11.297 59.019v119.41c0 27.57 22.43 50 50 50h165c27.57 0 50-22.43 50-50v-9.196c.967.437 1.94 1.112 2.92 1.526 16.34 6.91 33.7 10.67 51.59 10.67 18.26 0 35.95-3.9 52.57-11.101 5.06-2.189 7.4-8.205 5.21-13.274-1.59-3.66-5.19-6.093-9.19-6.093-1.36 0-2.7.249-3.96.799-14.11 6.1-29.13 9.185-44.64 9.185-30.04-.01-58.29-11.718-79.55-32.958-21.24-21.26-32.95-49.514-32.95-79.554s11.71-58.292 32.95-79.552c21.26-21.24 49.51-32.951 79.55-32.951s58.29 11.709 79.55 32.95c21.24 21.259 32.95 49.509 32.95 79.549 0 16.31-3.41 32.04-10.14 46.74-2.29 5.02-.08 10.96 4.94 13.26 1.31.6 2.71.899 4.15.899 3.9 0 7.48-2.29 9.1-5.84 3.87-8.46 6.85-17.359 8.85-26.46 2.06-9.34 3.1-18.96 3.1-28.6 0-17.89-3.51-35.239-10.42-51.579zm-339.58-250.42c0-5.514 4.986-10 10.5-10h40c5.514 0 9.5 4.486 9.5 10v10h-60zm0 30h60v20h-60zm0 40h60v20h-60zm95.581 180.029c-.194-.011-.385-.029-.581-.029h-22.688c-4.56-19.73-21.665-34.5-41.812-34.5s-37.252 14.77-41.813 34.5h-22.687c-5.523 0-10 4.478-10 10v164.5c0 5.522 4.477 10.5 10 10.5h129c5.523 0 10-4.978 10-10.5v-52.466c5.319 8.53 11.6 16.446 18.81 23.655 5.935 5.935 12.35 11.242 19.19 15.901v20.41c0 16.542-13.458 30-30 30h-165c-16.542 0-30-13.458-30-30v-119.41c0-17.735 3.357-35.083 9.979-51.562 6.606-16.44 16.192-31.28 28.487-44.105 27.797-28.973 43.359-66.855 44.003-106.923h60.061c.313 19.4 4.135 38.373 11.391 56.429 7.563 18.823 18.535 35.811 32.609 50.49 2.092 2.183 4.116 4.452 6.071 6.777-5.987 8.154-11.014 16.958-15.02 26.333zm-10.581 19.971v145h-109v-145h21.5c5.472 0 9.928-4.397 9.999-9.869.178-13.581 10.496-24.631 23.001-24.631s22.823 11.05 23.001 24.631c.071 5.472 4.527 9.869 9.999 9.869z"/><path d="m392 282c-16.542 0-30 14.457-30 32.227v35.547c0 17.77 13.458 32.227 30 32.227s30-14.457 30-32.227v-35.547c0-17.77-13.458-32.227-30-32.227zm10 67.773c0 6.742-4.486 12.227-10 12.227s-10-5.484-10-12.227v-35.547c0-6.742 4.486-12.227 10-12.227s10 5.484 10 12.227z"/><path d="m332 382c5.523 0 10-4.478 10-10v-80c0-5.522-4.477-10-10-10h-10c-5.523 0-10 4.478-10 10s4.477 10 10 10v70c0 5.522 4.477 10 10 10z"/><path d="m267 322c-5.523 0-10 4.478-10 10s4.477 10 10 10h25c5.523 0 10-4.478 10-10s-4.477-10-10-10z"/></g></g></svg>