<svg id="Capa_1" enable-background="new 0 0 512 512" height="512" viewBox="0 0 512 512" width="512" xmlns="http://www.w3.org/2000/svg"><g><g><path d="m10 316s106-120 246-120 246 120 246 120-106 120-246 120-246-120-246-120z" fill="#fff"/><circle cx="256" cy="316" fill="#cef" r="120"/></g><g><g><path d="m306 316c0-27.57-22.43-50-50-50s-50 22.43-50 50 22.43 50 50 50 50-22.43 50-50z" fill="#fff"/><g fill="#80aaff"><path d="m2.505 309.379c-3.34 3.782-3.34 9.459 0 13.241 1.116 1.263 27.84 31.286 72.361 61.642 53.424 36.426 116.485 61.738 181.134 61.738 64.658 0 127.719-25.318 181.133-61.738 44.521-30.355 71.246-60.378 72.361-61.642 3.34-3.782 3.34-9.459 0-13.241-1.116-1.263-27.84-31.286-72.361-61.642-53.424-36.425-116.484-61.737-181.133-61.737-64.658 0-127.719 25.318-181.133 61.738-44.522 30.355-71.246 60.378-72.362 61.641zm143.495 6.621c0-60.931 49.627-110 110-110 60.463 0 110 49.165 110 110 0 60.931-49.627 110-110 110-60.463 0-110-49.165-110-110zm279.423-52.04c30.496 20.736 52.605 41.702 62.798 52.044-10.121 10.279-32.009 31.043-62.354 51.733-20.774 14.164-47.836 29.776-79.142 41.272 24.213-23.624 39.275-56.588 39.275-93.009 0-36.422-15.062-69.387-39.277-93.012 31.122 11.428 58.029 26.917 78.7 40.972zm-260.148-40.97c-24.213 23.624-39.275 56.589-39.275 93.01 0 36.422 15.062 69.387 39.277 93.012-31.123-11.428-58.03-26.917-78.7-40.972-30.493-20.734-52.603-41.7-62.798-52.044 10.121-10.279 32.009-31.043 62.354-51.733 20.775-14.165 47.837-29.777 79.142-41.273z"/><path d="m171 168.775c4.783-2.761 6.422-8.877 3.66-13.66l-30-51.961c-2.761-4.784-8.878-6.422-13.66-3.66-4.783 2.761-6.422 8.877-3.66 13.66l30 51.961c2.774 4.807 8.899 6.409 13.66 3.66z"/><path d="m381 99.494c-4.782-2.762-10.899-1.123-13.66 3.66l-30 51.961c-2.762 4.783-1.123 10.899 3.66 13.66 4.762 2.749 10.887 1.144 13.66-3.66l30-51.961c2.762-4.783 1.123-10.899-3.66-13.66z"/><path d="m266 136v-60c0-5.523-4.477-10-10-10s-10 4.477-10 10v60c0 5.523 4.477 10 10 10s10-4.477 10-10z"/></g></g></g></g></svg>